# File created by Blade
# Date/Time:  Wed Jan 21 17:21:31 2015
# Frame Rate: 120.000 fps
#------------------------------------------------------
:FULLY-SPECIFIED
:DEGREES
970
root 19.397310 16.463074 -21.027011 -154.717237 22.532133 -196.430255
Spine 17.280909 28.965783 -24.653109
Head -37.834131 -8.154039 2.105191
LeftShoulder 1.344494 -19.670651 -4.055609
LeftArm -41.218476 55.264570 -106.184063
LeftForeArm 0.686763 -0.000000 8.016394
LeftHand -3.393152 -0.000000 -11.386248
LeftHandThumb1 -26.253704 0.000000 33.147579
RightShoulder 10.046440 1.012817 2.256064
RightArm 34.540662 -8.112699 56.194780
RightForeArm -7.356043 -0.000000 5.976142
RightHand -10.183357 0.000000 -0.048572
RightHandThumb1 -24.326973 -0.000000 -32.862282
LeftUpLeg -122.339085 -2.068922 -29.804384
LeftLeg 106.515921 -0.000000 -0.000000
LeftFoot -32.452540 31.381480 -7.505215
LeftToeBase 24.177818 -0.000000 -0.000000
RightUpLeg 3.516129 -2.013656 -14.238740
RightLeg 125.435739 -0.000000 -0.000000
RightFoot 43.557322 -18.113522 -4.928585
RightToeBase 34.087681 -0.000000 -0.000000
971
root 19.422797 16.516366 -20.918408 -154.432569 22.469961 -196.297112
Spine 18.240262 29.013228 -24.160024
Head -38.413732 -7.973729 2.067375
LeftShoulder 1.699609 -20.340438 -4.060585
LeftArm -38.889796 55.532312 -104.165563
LeftForeArm 1.265910 -0.000000 8.058762
LeftHand -3.363426 -0.000000 -10.972835
LeftHandThumb1 -26.253704 0.000000 33.147579
RightShoulder 10.560237 1.279652 2.037434
RightArm 34.222888 -6.637902 56.634623
RightForeArm -6.390081 0.000000 5.683919
RightHand -10.312137 -0.000000 0.280001
RightHandThumb1 -24.326973 -0.000000 -32.862282
LeftUpLeg -122.495551 -2.149948 -29.487365
LeftLeg 106.090910 -0.000000 -0.000000
LeftFoot -32.090519 31.543995 -7.389653
LeftToeBase 24.267000 -0.000000 -0.000000
RightUpLeg 2.996137 -1.618402 -13.926515
RightLeg 124.733946 -0.000000 -0.000000
RightFoot 43.550924 -18.142185 -4.878663
RightToeBase 34.345709 -0.000000 -0.000000
972
root 19.451877 16.564818 -20.823051 -154.283715 22.488415 -196.165921
Spine 19.313008 29.159889 -23.671732
Head -38.964794 -7.734675 2.015295
LeftShoulder 2.009843 -21.015675 -3.976168
LeftArm -36.372776 55.783134 -102.034468
LeftForeArm 1.742842 -0.000000 8.092498
LeftHand -3.310461 -0.000000 -10.147218
LeftHandThumb1 -26.253704 0.000000 33.147579
RightShoulder 11.084645 1.453191 1.856171
RightArm 34.037110 -5.366937 56.827676
RightForeArm -5.385506 0.000000 5.430227
RightHand -10.351905 -0.000000 0.525270
RightHandThumb1 -24.326973 -0.000000 -32.862282
LeftUpLeg -122.582596 -2.097784 -29.186661
LeftLeg 105.755334 -0.000000 -0.000000
LeftFoot -31.789746 31.647458 -7.356813
LeftToeBase 24.239283 -0.000000 -0.000000
RightUpLeg 2.617631 -1.131804 -13.663175
RightLeg 124.005474 -0.000000 -0.000000
RightFoot 43.672357 -18.150934 -4.802308
RightToeBase 34.335543 -0.000000 -0.000000
973
root 19.481495 16.613148 -20.714173 -154.064239 22.445182 -195.995869
Spine 20.384375 29.317643 -23.053786
Head -39.449237 -7.624835 1.964286
LeftShoulder 2.491163 -21.759864 -3.949783
LeftArm -33.859020 55.841207 -99.895338
LeftForeArm 2.082521 -0.000000 8.160926
LeftHand -3.285633 -0.000000 -9.581404
LeftHandThumb1 -26.253704 0.000000 33.147579
RightShoulder 11.556067 1.674897 1.576536
RightArm 33.777819 -4.109980 57.088471
RightForeArm -4.555568 0.000000 5.236423
RightHand -10.309685 -0.000000 0.838748
RightHandThumb1 -24.326973 -0.000000 -32.862282
LeftUpLeg -122.739770 -2.067367 -28.884936
LeftLeg 105.401912 -0.000000 -0.000000
LeftFoot -31.439986 31.583446 -7.359780
LeftToeBase 24.236885 -0.000000 -0.000000
RightUpLeg 2.167235 -0.732307 -13.341459
RightLeg 123.334263 -0.000000 -0.000000
RightFoot 43.766504 -18.273875 -4.755158
RightToeBase 34.428852 -0.000000 -0.000000
974
root 19.513224 16.665383 -20.598550 -153.800986 22.330887 -195.884348
Spine 21.403377 29.395816 -22.471963
Head -39.844346 -7.506397 1.914247
LeftShoulder 3.136699 -22.591442 -4.085725
LeftArm -31.571304 55.687846 -97.727490
LeftForeArm 2.236211 0.000000 8.421891
LeftHand -3.223003 -0.000000 -9.578271
LeftHandThumb1 -26.253704 0.000000 33.147579
RightShoulder 12.013805 1.815981 1.322494
RightArm 33.566878 -2.994556 57.204383
RightForeArm -3.684201 -0.000000 5.138057
RightHand -10.294213 0.000000 0.928927
RightHandThumb1 -24.326973 -0.000000 -32.862282
LeftUpLeg -122.868713 -2.108942 -28.654454
LeftLeg 104.965803 -0.000000 -0.000000
LeftFoot -31.015438 31.596301 -7.139221
LeftToeBase 24.270065 -0.000000 -0.000000
RightUpLeg 1.667847 -0.485795 -13.034383
RightLeg 122.637453 -0.000000 -0.000000
RightFoot 44.191405 -18.364700 -4.967055
RightToeBase 34.310052 -0.000000 -0.000000
